<?xml version="1.0" standalone="no"?>
<svg viewBox="0 0 200 200" xmlns="http://www.w3.org/2000/svg">
  <path fill="#F1C21B" d="M32.1,-55C41.9,-50,50.1,-41.9,58.5,-32.2C66.8,-22.5,75.3,-11.2,76.5,0.7C77.7,12.6,71.6,25.2,61.6,32.1C51.7,39,37.8,40.2,26.9,47.3C15.9,54.3,8,67.3,-1.9,70.5C-11.7,73.8,-23.4,67.3,-37.2,61.9C-51,56.5,-66.8,52.1,-76.5,41.9C-86.2,31.8,-89.8,15.9,-90.4,-0.3C-90.9,-16.5,-88.4,-33.1,-78.8,-43.3C-69.1,-53.6,-52.3,-57.5,-38,-59.8C-23.7,-62.1,-11.8,-62.7,-0.3,-62.2C11.2,-61.6,22.4,-59.9,32.1,-55Z" transform="translate(100 100)" />
</svg>
