<?xml version="1.0" standalone="no"?>
<svg viewBox="0 0 200 200" xmlns="http://www.w3.org/2000/svg">
  <path fill="#08BDBA" d="M34.6,-55C48,-52.1,64.3,-49.3,68.8,-40.2C73.3,-31,65.9,-15.5,61.6,-2.5C57.3,10.6,56.1,21.1,53.5,33.5C50.9,45.9,46.9,60.2,37.8,65.4C28.7,70.6,14.3,66.7,0.9,65.1C-12.4,63.5,-24.9,64.1,-30.4,56.8C-36,49.5,-34.7,34.4,-44.7,23.6C-54.8,12.8,-76.1,6.4,-83.9,-4.5C-91.7,-15.4,-85.8,-30.7,-77.2,-44C-68.6,-57.3,-57.3,-68.5,-44,-71.5C-30.7,-74.4,-15.3,-69.2,-2.4,-65.1C10.6,-61,21.1,-58,34.6,-55Z" transform="translate(100 100)" />
</svg>
