<?xml version="1.0" standalone="no"?>
<svg viewBox="0 0 200 200" xmlns="http://www.w3.org/2000/svg">
  <path fill="#F4ABC4" d="M42.8,-75.4C55.5,-66.7,66.1,-55.5,74.3,-42.5C82.5,-29.5,88.3,-14.7,89.6,0.8C90.9,16.3,87.7,32.5,79.5,45.4C71.2,58.3,58,67.9,43.9,76.1C29.8,84.3,14.9,91.1,-0.4,91.7C-15.6,92.3,-31.2,86.8,-44.2,77.9C-57.2,69.1,-67.6,57.1,-74.6,43.5C-81.7,30,-85.4,15,-86.7,-0.8C-88.1,-16.6,-87.1,-33.1,-80,-46.5C-72.9,-59.9,-59.6,-70.1,-45.3,-77.9C-30.9,-85.6,-15.5,-90.9,-0.2,-90.6C15,-90.2,30,-84.1,42.8,-75.4Z" transform="translate(100 100)" />
</svg>
