<?xml version="1.0" standalone="no"?>
<svg viewBox="0 0 200 200" xmlns="http://www.w3.org/2000/svg">
  <path fill="#D0E2FF" d="M46,-76.7C60.4,-71.4,73.4,-60.6,78.2,-46.9C83,-33.2,79.7,-16.6,76.5,-1.9C73.2,12.9,70.1,25.8,63.7,36.6C57.2,47.5,47.4,56.3,36.2,66.3C25.1,76.4,12.5,87.6,-1.4,90.1C-15.4,92.6,-30.9,86.4,-43.3,77.1C-55.7,67.8,-65.2,55.5,-73.6,42.1C-82.1,28.7,-89.5,14.4,-90.6,-0.6C-91.7,-15.6,-86.4,-31.2,-78.3,-45.1C-70.1,-59,-59.1,-71.1,-45.6,-77C-32,-82.8,-16,-82.3,-0.1,-82.2C15.8,-82,31.6,-82,46,-76.7Z" transform="translate(100 100)" />
</svg>
