<?xml version="1.0" standalone="no"?>
<svg viewBox="0 0 200 200" xmlns="http://www.w3.org/2000/svg">
  <path fill="#008891" d="M39,-63.3C52.4,-59.8,66.2,-53.1,74.8,-41.9C83.4,-30.8,86.6,-15.4,81.3,-3C76.1,9.3,62.3,18.7,51.1,25.3C40,32,31.5,35.9,23.4,39.9C15.3,43.9,7.7,48,-0.4,48.7C-8.5,49.4,-16.9,46.7,-31.1,46.2C-45.3,45.7,-65.2,47.4,-70.3,40.1C-75.5,32.7,-65.9,16.4,-65.7,0.1C-65.5,-16.1,-74.7,-32.3,-73.2,-45.9C-71.7,-59.6,-59.5,-70.7,-45.5,-73.8C-31.5,-76.9,-15.8,-71.8,-1.5,-69.3C12.8,-66.8,25.6,-66.7,39,-63.3Z" transform="translate(100 100)" />
</svg>
